<?xml version="1.0" encoding="UTF-8" standalone="no"?>
<!-- Created with Inkscape (http://www.inkscape.org/) -->
<svg
   xmlns:svg="http://www.w3.org/2000/svg"
   xmlns="http://www.w3.org/2000/svg"
   version="1.0"
   width="800"
   height="600"
   id="svg2">
  <defs
     id="defs4" />
  <g
     transform="translate(25,-232.36218)"
     id="layer1">
    <text
       x="241.63261"
       y="676.81824"
       style="font-size:244px;fill:#000000;font-family:Arial"
       id="text4170"
       xml:space="preserve"><tspan
         x="241.63261"
         y="676.81824"
         style="font-size:245px;fill:#000000;font-family:Arial"
         id="tspan4172">30</tspan></text>
    <path
       d="M 735.29204,298.72955 L 649.36729,786.16813 L 100.63271,786.16813 L 14.70796,298.72955 M 32.248042,392.89975 C 34.235642,390.6723 35.883442,388.81561 37.481542,387.21745 C 40.651842,384.04715 43.528542,381.01235 46.507542,378.54258 C 52.465542,373.60306 60.694742,370.54656 69.709552,370.54656 C 78.724352,370.54656 86.953552,373.60306 92.911552,378.54258 C 95.890552,381.01235 98.767252,384.04715 101.93755,387.21745 C 104.84955,390.12949 107.92925,393.89734 112.85745,399.20761 C 117.05935,403.73524 119.92145,406.78357 122.90045,409.25334 C 128.85835,414.19286 137.08765,417.24936 146.10245,417.24936 C 155.11715,417.24936 163.34645,414.19286 169.30445,409.25334 C 172.28345,406.78357 175.44675,403.73771 179.71185,399.20761 C 184.70905,393.89981 187.48755,390.12949 190.39955,387.21745 C 193.56985,384.04715 196.44655,381.01235 199.42555,378.54258 C 205.38355,373.60306 213.61275,370.54656 222.62755,370.54656 C 231.64235,370.54656 239.87155,373.60306 245.82955,378.54258 C 248.80855,381.01235 251.68525,384.04715 254.85555,387.21745 C 257.76755,390.12949 260.84445,393.89981 265.84165,399.20761 C 270.10675,403.73771 272.97165,406.78357 275.95065,409.25334 C 281.90855,414.19286 290.13785,417.24936 299.15265,417.24936 C 308.16735,417.24936 316.39663,414.19286 322.35462,409.25334 C 325.33361,406.78357 328.19857,403.73774 332.46364,399.20761 C 337.46085,393.89984 340.53766,390.12949 343.4497,387.21745 C 346.62001,384.04715 349.49669,381.01235 352.47568,378.54258 C 358.43367,373.60306 366.66292,370.54656 375.67769,370.54656 C 384.69246,370.54656 392.95396,373.56463 398.8797,378.54258 C 405.79636,384.35295 411.58399,391.33002 418.62672,399.20761 C 422.65489,403.71328 425.49174,406.78357 428.47074,409.25334 C 434.42864,414.19286 442.65794,417.24936 451.67274,417.24936 C 460.68744,417.24936 468.91674,414.19286 474.87474,409.25334 C 477.85374,406.78357 481.01709,403.73771 485.28214,399.20761 C 490.27939,393.89981 493.05784,390.12949 495.96984,387.21745 C 499.14014,384.04715 502.01684,381.01235 504.99584,378.54258 C 510.95384,373.60306 519.18304,370.54656 528.19784,370.54656 C 537.21264,370.54656 545.44184,373.60306 551.39984,378.54258 C 554.37884,381.01235 557.25554,384.04715 560.42584,387.21745 C 563.33784,390.12949 566.41469,393.89981 571.41194,399.20761 C 575.67699,403.73771 578.54194,406.78357 581.52094,409.25334 C 587.47884,414.19286 595.70814,417.24936 604.72294,417.24936 C 613.73764,417.24936 621.96693,414.19286 627.92492,409.25334 C 630.90391,406.78357 633.76887,403.73774 638.03394,399.20761 C 643.03115,393.89984 646.10796,390.12949 649.02,387.21745 C 652.19031,384.04715 655.06699,381.01235 658.04598,378.54258 C 664.00397,373.60306 672.23322,370.54656 681.24799,370.54656 C 690.26276,370.54656 698.49201,373.60306 704.45,378.54258 C 707.42899,381.01235 710.30567,384.04715 713.47598,387.21745 C 715.1471,388.88858 716.86863,390.84599 718.77432,392.95272 M 649.36729,811.92702 L 100.63271,811.92702"
       style="fill:none;stroke:#000000;stroke-width:8;stroke-linecap:round;stroke-linejoin:round"
       id="path2161" />
  </g>
</svg>
